# xmcd
#
# Track frame offsets: 
#        150
#        13507
#        23757
#        32842
#        45062
#        57032
#        68920
#        83997
#        95257
#        106690
#        124915
#        138367
#
# Disc length: 1992 seconds
#
# Revision: 3
# Processed by: cddbd v1.5PL3 Copyright (c) Steve Scherf et al.
# Submitted via: ExactAudioCopy v0.95a4
#
DISCID=8a07c60c
DTITLE=Various Artist - Smoky Mountain Hymns
DYEAR=1989
DGENRE=Christian
TTITLE0=I'll Fly Away
TTITLE1=Old Time Religion
TTITLE2=I Have Decided To Follow Jesus
TTITLE3=Amazing Grace
TTITLE4=What A Friend We Have In Jesus
TTITLE5=Lily Of The Valley
TTITLE6=Unclouded Day
TTITLE7=I Saw The Light
TTITLE8=I Am Bound For The Promised Land
TTITLE9=Blessed Assurance
TTITLE10=How Great Thou Art
TTITLE11=There Is A Fountain
EXTD=YEAR: 1989
EXTT0=
EXTT1=
EXTT2=
EXTT3=
EXTT4=
EXTT5=
EXTT6=
EXTT7=
EXTT8=
EXTT9=
EXTT10=
EXTT11=
PLAYORDER=
